# Blender v2.90.1 OBJ File: 'untitled.blend'
# www.blender.org
mtllib sceene.mtl
o Cube.002_Cube
v 21.591179 -0.846416 13.596817
v 21.591179 -0.986713 24.193312
v 21.591179 -0.986712 13.596815
v -16.089275 -0.846417 24.193312
v -21.536537 -0.986713 24.193312
v -16.089275 -0.986713 24.193312
v 14.716238 -0.986712 13.596817
v 14.716238 -0.986713 24.193312
v -21.536537 -0.846416 13.596815
v -16.089275 -0.846416 13.596817
v 14.716238 -0.846416 13.596817
v 21.591179 -0.846417 24.193312
v 8.555135 -0.846416 13.596817
v 14.716238 -0.846417 24.193312
v 2.394033 -0.846416 13.596817
v 8.555135 -0.846417 24.193312
v -3.767069 -0.846416 13.596817
v 2.394033 -0.846417 24.193312
v -9.928172 -0.846416 13.596817
v -3.767069 -0.846417 24.193312
v -9.928172 -0.846417 24.193312
v -16.089275 -0.986712 13.596817
v -21.536537 -0.986712 13.596817
v -9.928172 -0.986712 13.596817
v -3.767069 -0.986712 13.596817
v -9.928172 -0.986713 24.193312
v 2.394033 -0.986712 13.596817
v -3.767069 -0.986713 24.193312
v 8.555135 -0.986712 13.596817
v 2.394033 -0.986713 24.193312
v 8.555135 -0.986713 24.193312
v 8.555135 -0.986706 -19.595356
v 14.716238 -0.986706 -19.595356
v 8.555135 -0.986708 -8.531299
v 14.716238 -0.986708 -8.531299
v 8.555135 -0.986710 2.532761
v 14.716238 -0.986710 2.532761
v 2.394033 -0.986706 -19.595356
v 2.394033 -0.986708 -8.531299
v 2.394033 -0.986710 2.532761
v -3.767069 -0.986706 -19.595356
v -3.767069 -0.986708 -8.531299
v -3.767069 -0.986710 2.532761
v -9.928172 -0.986706 -19.595356
v -9.928172 -0.986708 -8.531299
v -9.928172 -0.986710 2.532761
v -16.089275 -0.986706 -19.595356
v -16.089275 -0.986708 -8.531299
v -16.089275 -0.986710 2.532761
v -21.536537 -0.986706 -19.595356
v -21.536537 -0.986708 -8.531299
v -21.536537 -0.986710 2.532761
v -9.928172 -0.846410 -19.595356
v -16.089275 -0.846410 -19.595356
v -9.928172 -0.846412 -8.531299
v -16.089275 -0.846412 -8.531299
v -9.928172 -0.846414 2.532761
v -16.089275 -0.846414 2.532761
v -3.767069 -0.846410 -19.595356
v -3.767069 -0.846412 -8.531299
v -3.767069 -0.846414 2.532761
v 2.394033 -0.846410 -19.595356
v 2.394033 -0.846412 -8.531299
v 2.394033 -0.846414 2.532761
v 8.555135 -0.846410 -19.595356
v 8.555135 -0.846412 -8.531299
v 8.555135 -0.846414 2.532761
v 14.716238 -0.846410 -19.595356
v 14.716238 -0.846412 -8.531299
v 14.716238 -0.846414 2.532761
v 21.591179 -0.846410 -19.595356
v 21.591179 -0.846412 -8.531299
v 21.591179 -0.846414 2.532761
v -21.536537 -0.846412 -8.531301
v -21.536537 -0.846414 2.532757
v 21.591179 -0.986708 -8.531301
v 21.591179 -0.986710 2.532757
v 21.591179 -0.986706 -19.595360
v -21.536537 -0.846417 24.193312
v -21.536537 -0.846410 -19.595360
vt 0.625000 0.710094
vt 0.375000 0.750000
vt 0.375000 0.710094
vt 0.625000 0.968424
vt 0.375000 1.000000
vt 0.375000 0.968424
vt 0.335148 0.710094
vt 0.335148 0.750000
vt 0.875000 0.710094
vt 0.843424 0.750000
vt 0.843424 0.710094
vt 0.664852 0.710094
vt 0.625000 0.750000
vt 0.700567 0.710094
vt 0.664852 0.750000
vt 0.736281 0.710094
vt 0.700567 0.750000
vt 0.771995 0.710094
vt 0.736281 0.750000
vt 0.807709 0.710094
vt 0.771995 0.750000
vt 0.807709 0.750000
vt 0.156576 0.710094
vt 0.125000 0.750000
vt 0.125000 0.710094
vt 0.192291 0.710094
vt 0.156576 0.750000
vt 0.228005 0.710094
vt 0.192291 0.750000
vt 0.263719 0.710094
vt 0.228005 0.750000
vt 0.299433 0.710094
vt 0.263719 0.750000
vt 0.299433 0.750000
vt 0.375000 0.789852
vt 0.625000 0.789852
vt 0.375000 0.825567
vt 0.625000 0.825566
vt 0.375000 0.861281
vt 0.625000 0.861281
vt 0.375000 0.896995
vt 0.625000 0.896995
vt 0.375000 0.932709
vt 0.625000 0.932709
vt 0.335148 0.585094
vt 0.299433 0.585094
vt 0.700567 0.585094
vt 0.299433 0.626761
vt 0.335148 0.626761
vt 0.299433 0.668427
vt 0.335148 0.668427
vt 0.263719 0.626761
vt 0.263719 0.585094
vt 0.263719 0.668427
vt 0.228005 0.626761
vt 0.228005 0.585094
vt 0.228005 0.668427
vt 0.192291 0.626761
vt 0.192291 0.585094
vt 0.192291 0.668427
vt 0.156576 0.626761
vt 0.156576 0.585094
vt 0.156576 0.668427
vt 0.125000 0.626761
vt 0.125000 0.585094
vt 0.125000 0.668427
vt 0.843424 0.585094
vt 0.807709 0.626761
vt 0.807709 0.585094
vt 0.843424 0.626761
vt 0.807709 0.668427
vt 0.843424 0.668427
vt 0.771995 0.626761
vt 0.771995 0.585094
vt 0.771995 0.668427
vt 0.736281 0.626761
vt 0.736281 0.585094
vt 0.736281 0.668427
vt 0.700567 0.626761
vt 0.700567 0.668427
vt 0.664852 0.626761
vt 0.664852 0.585094
vt 0.664852 0.668427
vt 0.375000 0.585094
vt 0.625000 0.626761
vt 0.625000 0.585094
vt 0.625000 0.668427
vt 0.875000 0.626761
vt 0.875000 0.668427
vt 0.375000 0.626761
vt 0.375000 0.668427
vt 0.625000 0.164906
vt 0.625000 0.000000
vt 0.375000 0.039906
vt 0.375000 0.000000
vt 0.625000 0.039906
vt 0.375000 0.081573
vt 0.625000 0.081573
vt 0.375000 0.123239
vt 0.625000 0.123239
vt 0.375000 0.164906
vt 0.625000 1.000000
vt 0.875000 0.750000
vt 0.875000 0.585094
vn 1.0000 -0.0000 0.0000
vn 0.0000 0.0000 1.0000
vn 0.0000 -1.0000 -0.0000
vn -0.0000 1.0000 0.0000
vn 0.0000 0.0000 -1.0000
vn -1.0000 0.0000 0.0000
usemtl Default_OBJ
s off
f 1/1/1 2/2/1 3/3/1
f 4/4/2 5/5/2 6/6/2
f 7/7/3 2/2/3 8/8/3
f 9/9/4 4/10/4 10/11/4
f 11/12/4 12/13/4 1/1/4
f 13/14/4 14/15/4 11/12/4
f 15/16/4 16/17/4 13/14/4
f 17/18/4 18/19/4 15/16/4
f 19/20/4 20/21/4 17/18/4
f 10/11/4 21/22/4 19/20/4
f 22/23/3 5/24/3 23/25/3
f 24/26/3 6/27/3 22/23/3
f 25/28/3 26/29/3 24/26/3
f 27/30/3 28/31/3 25/28/3
f 29/32/3 30/33/3 27/30/3
f 7/7/3 31/34/3 29/32/3
f 12/13/2 8/35/2 2/2/2
f 14/36/2 31/37/2 8/35/2
f 16/38/2 30/39/2 31/37/2
f 18/40/2 28/41/2 30/39/2
f 20/42/2 26/43/2 28/41/2
f 21/44/2 6/6/2 26/43/2
f 33/45/5 32/46/5 65/47/5
f 33/45/3 34/48/3 32/46/3
f 35/49/3 36/50/3 34/48/3
f 37/51/3 29/32/3 36/50/3
f 32/46/3 39/52/3 38/53/3
f 34/48/3 40/54/3 39/52/3
f 36/50/3 27/30/3 40/54/3
f 38/53/3 42/55/3 41/56/3
f 39/52/3 43/57/3 42/55/3
f 40/54/3 25/28/3 43/57/3
f 41/56/3 45/58/3 44/59/3
f 42/55/3 46/60/3 45/58/3
f 43/57/3 24/26/3 46/60/3
f 44/59/3 48/61/3 47/62/3
f 45/58/3 49/63/3 48/61/3
f 46/60/3 22/23/3 49/63/3
f 47/62/3 51/64/3 50/65/3
f 48/61/3 52/66/3 51/64/3
f 49/63/3 23/25/3 52/66/3
f 54/67/4 55/68/4 53/69/4
f 56/70/4 57/71/4 55/68/4
f 58/72/4 19/20/4 57/71/4
f 53/69/4 60/73/4 59/74/4
f 55/68/4 61/75/4 60/73/4
f 57/71/4 17/18/4 61/75/4
f 59/74/4 63/76/4 62/77/4
f 60/73/4 64/78/4 63/76/4
f 61/75/4 15/16/4 64/78/4
f 62/77/4 66/79/4 65/47/4
f 63/76/4 67/80/4 66/79/4
f 64/78/4 13/14/4 67/80/4
f 65/47/4 69/81/4 68/82/4
f 66/79/4 70/83/4 69/81/4
f 67/80/4 11/12/4 70/83/4
f 78/84/5 33/45/5 68/82/5
f 68/82/4 72/85/4 71/86/4
f 69/81/4 73/87/4 72/85/4
f 70/83/4 1/1/4 73/87/4
f 54/67/4 74/88/4 56/70/4
f 56/70/4 75/89/4 58/72/4
f 58/72/4 9/9/4 10/11/4
f 33/45/3 76/90/3 35/49/3
f 35/49/3 77/91/3 37/51/3
f 37/51/3 3/3/3 7/7/3
f 41/56/5 44/59/5 53/69/5
f 80/92/5 54/67/5 47/62/5
f 71/86/1 76/90/1 78/84/1
f 72/85/1 77/91/1 76/90/1
f 73/87/1 3/3/1 77/91/1
f 79/93/6 23/94/6 5/95/6
f 9/96/6 52/97/6 23/94/6
f 75/98/6 51/99/6 52/97/6
f 74/100/6 50/101/6 51/99/6
f 1/1/1 12/13/1 2/2/1
f 4/4/2 79/102/2 5/5/2
f 7/7/3 3/3/3 2/2/3
f 9/9/4 79/103/4 4/10/4
f 11/12/4 14/15/4 12/13/4
f 13/14/4 16/17/4 14/15/4
f 15/16/4 18/19/4 16/17/4
f 17/18/4 20/21/4 18/19/4
f 19/20/4 21/22/4 20/21/4
f 10/11/4 4/10/4 21/22/4
f 22/23/3 6/27/3 5/24/3
f 24/26/3 26/29/3 6/27/3
f 25/28/3 28/31/3 26/29/3
f 27/30/3 30/33/3 28/31/3
f 29/32/3 31/34/3 30/33/3
f 7/7/3 8/8/3 31/34/3
f 12/13/2 14/36/2 8/35/2
f 14/36/2 16/38/2 31/37/2
f 16/38/2 18/40/2 30/39/2
f 18/40/2 20/42/2 28/41/2
f 20/42/2 21/44/2 26/43/2
f 21/44/2 4/4/2 6/6/2
f 33/45/3 35/49/3 34/48/3
f 35/49/3 37/51/3 36/50/3
f 37/51/3 7/7/3 29/32/3
f 32/46/3 34/48/3 39/52/3
f 34/48/3 36/50/3 40/54/3
f 36/50/3 29/32/3 27/30/3
f 38/53/3 39/52/3 42/55/3
f 39/52/3 40/54/3 43/57/3
f 40/54/3 27/30/3 25/28/3
f 41/56/3 42/55/3 45/58/3
f 42/55/3 43/57/3 46/60/3
f 43/57/3 25/28/3 24/26/3
f 44/59/3 45/58/3 48/61/3
f 45/58/3 46/60/3 49/63/3
f 46/60/3 24/26/3 22/23/3
f 47/62/3 48/61/3 51/64/3
f 48/61/3 49/63/3 52/66/3
f 49/63/3 22/23/3 23/25/3
f 54/67/4 56/70/4 55/68/4
f 56/70/4 58/72/4 57/71/4
f 58/72/4 10/11/4 19/20/4
f 53/69/4 55/68/4 60/73/4
f 55/68/4 57/71/4 61/75/4
f 57/71/4 19/20/4 17/18/4
f 59/74/4 60/73/4 63/76/4
f 60/73/4 61/75/4 64/78/4
f 61/75/4 17/18/4 15/16/4
f 62/77/4 63/76/4 66/79/4
f 63/76/4 64/78/4 67/80/4
f 64/78/4 15/16/4 13/14/4
f 65/47/4 66/79/4 69/81/4
f 66/79/4 67/80/4 70/83/4
f 67/80/4 13/14/4 11/12/4
f 68/82/4 69/81/4 72/85/4
f 69/81/4 70/83/4 73/87/4
f 70/83/4 11/12/4 1/1/4
f 54/67/4 80/104/4 74/88/4
f 56/70/4 74/88/4 75/89/4
f 58/72/4 75/89/4 9/9/4
f 54/67/5 53/69/5 44/59/5
f 33/45/3 78/84/3 76/90/3
f 35/49/3 76/90/3 77/91/3
f 37/51/3 77/91/3 3/3/3
f 32/46/5 38/53/5 62/77/5
f 38/53/5 41/56/5 59/74/5
f 71/86/1 72/85/1 76/90/1
f 72/85/1 73/87/1 77/91/1
f 73/87/1 1/1/1 3/3/1
f 79/93/6 9/96/6 23/94/6
f 9/96/6 75/98/6 52/97/6
f 75/98/6 74/100/6 51/99/6
f 74/100/6 80/92/6 50/101/6
f 47/62/5 54/67/5 44/59/5
f 50/101/5 80/92/5 47/62/5
f 59/74/5 41/56/5 53/69/5
f 62/77/5 38/53/5 59/74/5
f 65/47/5 32/46/5 62/77/5
f 68/82/5 33/45/5 65/47/5
f 71/86/5 78/84/5 68/82/5
